<?xml version="1.0" encoding="UTF-8"?>
<svg width="821px" height="821px" viewBox="0 0 821 821" version="1.1" xmlns="http://www.w3.org/2000/svg" xmlns:xlink="http://www.w3.org/1999/xlink">
    <title>01_movieclapper</title>
    <g id="Icon" stroke="none" stroke-width="1" fill="none" fill-rule="evenodd">
        <g id="AppIcon-04" transform="translate(-101, -102)" fill="color(display-p3 1.000 1.000 1.000)">
            <path d="M511.901786,102.451172 C738.338786,102.451172 921.901786,286.014172 921.901786,512.451172 C921.901786,738.888172 738.338786,922.451172 511.901786,922.451172 C285.464786,922.451172 101.901786,738.888172 101.901786,512.451172 C101.901786,286.014172 285.464786,102.451172 511.901786,102.451172 Z M691.825324,254.07268 C677.974519,246.445286 660.620891,245.407456 639.764438,250.959191 L300.212265,342.266799 C279.391477,347.956435 264.981932,357.540608 256.98363,371.019316 C248.985328,384.498024 247.762045,401.647772 253.313779,422.46856 L269.665837,483.06925 L269.665837,670.278021 C269.665837,691.721745 275.230648,707.943628 286.360271,718.943671 C297.489894,729.943714 313.98342,735.443735 335.840849,735.443735 L687.333412,735.443735 C709.190841,735.443735 725.654053,729.943714 736.723046,718.943671 C747.79204,707.943628 753.326537,691.721745 753.326537,670.278021 L753.326537,466.570969 C753.326537,454.65911 749.719693,445.09277 742.506004,437.871949 C735.292316,430.651127 725.577374,427.040717 713.361181,427.040717 L479.100567,427.040717 L698.057652,368.323099 C709.912448,365.279749 718.388651,359.280429 723.486261,350.325136 C728.583871,341.369843 729.672819,331.149064 726.753106,319.662799 L720.658086,296.527401 C715.28705,275.851647 705.67613,261.700074 691.825324,254.07268 Z M716.31418,557.329348 L716.31418,667.613902 C716.31418,677.73066 713.661949,685.358054 708.357487,690.496084 C703.053024,695.634113 695.569476,698.203128 685.906843,698.203128 L337.288818,698.203128 C327.49066,698.203128 319.970259,695.634113 314.727614,690.496084 C309.48497,685.358054 306.863648,677.73066 306.863648,667.613902 L306.863648,557.329348 L716.31418,557.329348 Z M426.477969,464.691463 L394.044902,524.325653 L325.573112,524.325653 L356.747231,467.166562 L411.206538,464.691463 L426.477969,464.691463 Z M565.397348,464.691463 L532.98568,524.325653 L459.952432,524.325653 L492.157248,464.691463 L565.397348,464.691463 Z M699.548417,464.691463 L667.343601,524.325653 L598.889644,524.325653 L631.098026,464.691463 L699.548417,464.691463 Z M396.933706,354.299916 L381.655142,419.697448 L315.166285,437.504607 L330.879952,372.171271 L396.933706,354.299916 Z M531.188202,318.432382 L515.866841,383.993969 L445.026945,402.646371 L460.53376,337.266671 L531.188202,318.432382 Z M660.656555,283.941488 L645.356592,349.092936 L579.099552,366.917927 L594.606367,301.377739 L644.575545,287.778961 C647.393021,287.032389 650.104098,286.358335 652.708777,285.756798 C655.313456,285.155261 657.962715,284.550158 660.656555,283.941488 Z" id="01_movieclapper"></path>
        </g>
    </g>
</svg>