<?xml version="1.0" encoding="UTF-8"?>
<svg width="821px" height="821px" viewBox="0 0 821 821" version="1.1" xmlns="http://www.w3.org/2000/svg" xmlns:xlink="http://www.w3.org/1999/xlink">
    <title>01_heart</title>
    <g id="Icon" stroke="none" stroke-width="1" fill="none" fill-rule="evenodd">
        <g id="AppIcon-01" transform="translate(-101, -102)" fill="color(display-p3 1.000 1.000 1.000)">
            <path d="M511.901786,102.451172 C738.338786,102.451172 921.901786,286.014172 921.901786,512.451172 C921.901786,738.888172 738.338786,922.451172 511.901786,922.451172 C285.464786,922.451172 101.901786,738.888172 101.901786,512.451172 C101.901786,286.014172 285.464786,102.451172 511.901786,102.451172 Z M625.745536,309.451172 C599.808036,309.451172 577.073661,316.151714 557.542411,329.552798 C538.011161,342.953882 522.464286,360.25063 510.901786,381.443042 C499.339286,360.25063 483.792411,342.953882 464.261161,329.552798 C444.729911,316.151714 421.839286,309.451172 395.589286,309.451172 C368.714286,309.451172 344.729911,315.762147 323.636161,328.384099 C302.542411,341.00605 285.979911,358.380711 273.948661,380.508082 C261.917411,402.635454 255.901786,428.035183 255.901786,456.707269 C255.901786,483.197784 260.979911,508.831253 271.136161,533.607676 C281.292411,558.384099 294.808036,581.991822 311.683036,604.430847 C328.558036,626.869871 347.151786,647.672717 367.464286,666.839383 C387.776786,686.00605 408.245536,703.224885 428.870536,718.495887 C449.495536,733.76689 468.245536,746.856321 485.120536,757.76418 C489.495536,760.257405 494.183036,762.828543 499.183036,765.477595 C504.183036,768.126646 508.401786,769.451172 511.839286,769.451172 C515.276786,769.451172 519.261161,768.126646 523.792411,765.477595 C528.323661,762.828543 532.464286,760.257405 536.214286,757.76418 C553.401786,746.856321 572.151786,733.688977 592.464286,718.262147 C612.776786,702.835318 633.089286,685.53857 653.401786,666.371904 C673.714286,647.205237 692.386161,626.402391 709.417411,603.963367 C726.448661,581.524343 740.120536,557.994532 750.433036,533.373936 C760.745536,508.75334 765.901786,483.197784 765.901786,456.707269 C765.901786,428.035183 759.808036,402.635454 747.620536,380.508082 C735.433036,358.380711 718.870536,341.00605 697.933036,328.384099 C676.995536,315.762147 652.933036,309.451172 625.745536,309.451172 Z" id="01_heart"></path>
        </g>
    </g>
</svg>